<?xml version="1.0" encoding="UTF-8" standalone="no"?>
<svg
   xmlns:dc="http://purl.org/dc/elements/1.1/"
   xmlns:cc="http://creativecommons.org/ns#"
   xmlns:rdf="http://www.w3.org/1999/02/22-rdf-syntax-ns#"
   xmlns:svg="http://www.w3.org/2000/svg"
   xmlns="http://www.w3.org/2000/svg"
   viewBox="0 0 775.35999 471.67999"
   height="471.67999"
   width="775.35999"
   xml:space="preserve"
   id="svg2"
   version="1.1"><metadata
     id="metadata8"><rdf:RDF><cc:Work
         rdf:about=""><dc:format>image/svg+xml</dc:format><dc:type
           rdf:resource="http://purl.org/dc/dcmitype/StillImage" /></cc:Work></rdf:RDF></metadata><defs
     id="defs6" /><g
     transform="matrix(1.3333333,0,0,-1.3333333,0,471.68)"
     id="g10"><g
       transform="scale(0.1)"
       id="g12"><path
         id="path14"
         style="fill:#231f20;fill-opacity:1;fill-rule:nonzero;stroke:none"
         d="m 46.8672,614.41 c 48.7695,-29.558 149.8048,-62.672 228.1248,-62.672 80.074,0 113.11,26.133 113.11,69.653 0,45.281 -26.051,66.168 -123.59,99.211 -177.6097,59.187 -245.4456,154.98 -243.6995,255.929 0,160.139 135.8285,280.229 346.4065,280.229 99.207,0 186.261,-24.39 238.531,-50.51 l -45.281,-182.77 c -38.289,20.89 -113.192,48.77 -184.598,48.77 -64.34,0 -100.879,-26.14 -100.879,-67.92 0,-41.771 33.043,-62.67 137.414,-99.201 161.891,-55.699 228.129,-139.25 229.875,-262.84 0,-160.141 -123.593,-276.738 -367.289,-276.738 -111.437,0 -210.6522,26.039 -274.99590625,60.918 L 46.8672,614.41" /><path
         id="path16"
         style="fill:#231f20;fill-opacity:1;fill-rule:nonzero;stroke:none"
         d="m 1059.46,1465.59 v -229.71 h 189.68 V 1040.87 H 1059.46 V 732.832 c 0,-102.703 26.05,-149.723 104.37,-149.723 36.54,0 54.02,1.743 78.32,6.993 l 1.75,-200.25 c -33.05,-12.153 -97.54,-22.551 -170.62,-22.551 -85.307,0 -156.635,29.551 -200.167,73.058 -48.769,50.532 -73.078,132.262 -73.078,252.442 v 348.069 195.01 158.39 l 259.425,71.32" /><path
         id="path18"
         style="fill:#231f20;fill-opacity:1;fill-rule:nonzero;stroke:none"
         d="m 1618.19,811.148 c 0,-146.226 61,-255.918 174.11,-255.918 104.37,0 168.86,102.7 168.86,257.668 0,125.282 -48.77,254.102 -168.86,254.102 -125.34,0 -174.11,-130.5 -174.11,-255.852 z m 616.22,8.672 c 0,-311.539 -221.14,-454.269 -449.11,-454.269 -248.93,0 -440.36,163.621 -440.36,438.621 0,276.728 180.94,452.588 456.09,452.588 259.27,0 433.38,-179.28 433.38,-436.94" /><path
         id="path20"
         style="fill:#231f20;fill-opacity:1;fill-rule:nonzero;stroke:none"
         d="m 2398.04,955.648 c 0,125.252 -1.74,207.072 -6.99,280.232 h 226.38 l 10.4,-156.72 h 6.91 c 43.54,125.34 146.32,177.6 229.88,177.6 24.31,0 36.54,-1.74 55.61,-5.24 v -248.94 c -20.82,3.5 -41.79,7 -71.34,7 -97.54,0 -163.62,-52.271 -181.03,-133.998 -3.48,-17.473 -5.16,-38.371 -5.16,-59.262 V 384.691 h -264.66 v 570.957" /><path
         id="path22"
         style="fill:#231f20;fill-opacity:1;fill-rule:nonzero;stroke:none"
         d="m 3289.26,1235.88 127.09,-419.56 c 13.98,-48.691 31.3,-113.109 41.78,-158.39 h 6.99 c 10.49,47.031 24.31,109.699 36.54,160.14 l 106.13,417.81 h 281.98 L 3691.34,675.32 C 3569.49,335.922 3487.68,201.922 3392.04,116.609 3301.5,36.5391 3203.95,6.91016 3137.86,0 l -57.51,222.801 c 33.21,6.918 74.91,22.648 114.95,45.289 40.03,20.801 85.3,64.332 109.68,106.121 8.75,13.969 13.91,27.871 13.91,38.281 0,10.488 -1.75,22.637 -10.41,43.528 l -313.35,779.86 h 294.13" /><path
         id="path24"
         style="fill:#231f20;fill-opacity:1;fill-rule:nonzero;stroke:none"
         d="m 4297.25,1465.59 v -229.71 h 189.68 V 1040.87 H 4297.25 V 732.832 c 0,-102.703 26.05,-149.723 104.37,-149.723 36.54,0 54.01,1.743 78.31,6.993 l 1.75,-200.25 c -33.03,-12.153 -97.46,-22.551 -170.61,-22.551 -85.24,0 -156.64,29.551 -200.17,73.058 -48.69,50.532 -73.07,132.262 -73.07,252.442 v 348.069 195.01 158.39 l 259.42,71.32" /><path
         id="path26"
         style="fill:#231f20;fill-opacity:1;fill-rule:nonzero;stroke:none"
         d="m 5146.68,906.879 c 0,64.41 -27.8,172.281 -149.64,172.281 -111.52,0 -156.72,-102.629 -163.64,-172.281 z M 4835.15,725.852 c 6.84,-109.704 116.61,-161.883 240.21,-161.883 90.47,0 163.63,12.152 234.96,36.543 l 34.79,-179.282 c -87.06,-36.539 -193.17,-53.929 -308.04,-53.929 -288.97,0 -454.35,167.039 -454.35,433.371 0,215.888 134,454.348 429.89,454.348 274.99,0 379.52,-214.15 379.52,-424.719 0,-45.281 -5.24,-85.309 -8.74,-104.449 h -548.24" /><path
         id="path28"
         style="fill:#231f20;fill-opacity:1;fill-rule:nonzero;stroke:none"
         d="m 5550.59,384.691 h 264.6 V 1579.89 l -264.6,-72.84 V 384.691" /><path
         id="path30"
         style="fill:#f25a30;fill-opacity:1;fill-rule:nonzero;stroke:none"
         d="m 3770.33,2600.57 c 74.48,408.03 -174.12,773.01 -563.34,894.22 -691.11,215.24 -1180.94,-418 -1175.26,-1056.22 4.59,-515.67 115.08,-858.52 115.13,-858.68 -4.94,15.32 130.55,86.68 146.2,94.74 53.1,27.34 108.73,49.46 165.36,68.28 116.54,38.72 237.15,63.19 356.7,90.5 374.07,85.45 775.98,246.71 919.04,634.9 16.08,43.62 28.07,87.85 36.17,132.26" /></g></g></svg>